<?xml version="1.0" encoding="UTF-8" standalone="no"?>
<svg
   xmlns:dc="http://purl.org/dc/elements/1.1/"
   xmlns:cc="http://creativecommons.org/ns#"
   xmlns:rdf="http://www.w3.org/1999/02/22-rdf-syntax-ns#"
   xmlns:svg="http://www.w3.org/2000/svg"
   xmlns="http://www.w3.org/2000/svg"
   xmlns:sodipodi="http://sodipodi.sourceforge.net/DTD/sodipodi-0.dtd"
   xmlns:inkscape="http://www.inkscape.org/namespaces/inkscape"
   sodipodi:docname="Logo.svg"
   inkscape:version="1.0 (4035a4fb49, 2020-05-01)"
   id="svg8"
   version="1.1"
   viewBox="0 0 210 297"
   height="297mm"
   width="210mm">
  <defs
     id="defs2" />
  <sodipodi:namedview
     inkscape:window-maximized="0"
     inkscape:window-y="35"
     inkscape:window-x="8"
     inkscape:window-height="1000"
     inkscape:window-width="1904"
     showgrid="false"
     inkscape:document-rotation="0"
     inkscape:current-layer="layer1"
     inkscape:document-units="mm"
     inkscape:cy="349.57529"
     inkscape:cx="273.87961"
     inkscape:zoom="0.98994949"
     inkscape:pageshadow="2"
     inkscape:pageopacity="0.0"
     borderopacity="1.0"
     bordercolor="#666666"
     pagecolor="#ffffff"
     id="base" />
  <metadata
     id="metadata5">
    <rdf:RDF>
      <cc:Work
         rdf:about="">
        <dc:format>image/svg+xml</dc:format>
        <dc:type
           rdf:resource="http://purl.org/dc/dcmitype/StillImage" />
        <dc:title></dc:title>
      </cc:Work>
    </rdf:RDF>
  </metadata>
  <g
     id="layer1"
     inkscape:groupmode="layer"
     inkscape:label="Layer 1">
    <path
       transform="scale(0.26458333)"
       d="M 394.95508 216.72266 L 392.53906 220.9082 L 386.63672 231.13086 L 394.95508 231.13086 L 394.95508 241.35156 L 380.73633 241.35156 L 374.83398 251.57422 L 394.95508 251.57422 L 394.95508 261.79492 L 368.93164 261.79492 L 363.03125 272.01758 L 394.95508 272.01758 L 394.95508 282.23828 L 357.12891 282.23828 L 351.22852 292.46094 L 394.95508 292.46094 L 394.95508 302.68164 L 345.32617 302.68164 L 339.42383 312.9043 L 394.95508 312.9043 L 394.95508 323.125 L 333.52344 323.125 L 327.62109 333.34766 L 394.95508 333.34766 L 394.95508 343.56836 L 321.7207 343.56836 L 315.81836 353.79102 L 394.95508 353.79102 L 394.95508 364.01172 L 309.91797 364.01172 L 304.01562 374.23438 L 394.95508 374.23438 L 394.95508 384.45508 L 298.11523 384.45508 L 292.21289 394.67773 L 394.95508 394.67773 L 394.95508 404.89844 L 286.3125 404.89844 L 280.41016 415.12109 L 394.95508 415.12109 L 394.95508 425.3418 L 274.50781 425.3418 L 268.60742 435.56445 L 394.95508 435.56445 L 394.95508 445.78516 L 262.70508 445.78516 L 256.80469 456.00586 L 394.95508 456.00586 L 394.95508 466.22852 L 250.90234 466.22852 L 245.00195 476.44922 L 394.95508 476.44922 L 394.95508 486.67188 L 239.09961 486.67188 L 233.19922 496.89258 L 394.95508 496.89258 L 394.95508 507.11523 L 227.29688 507.11523 L 221.39648 517.33594 L 394.95508 517.33594 L 394.95508 527.55859 L 215.49414 527.55859 L 209.59375 537.7793 L 394.95508 537.7793 L 394.95508 548.00195 L 203.69141 548.00195 L 197.78906 558.22266 L 394.95508 558.22266 L 394.95508 568.44531 L 191.88867 568.44531 L 185.98633 578.66602 L 394.95508 578.66602 L 394.95508 588.88867 L 180.08398 588.88867 L 174.18359 599.10938 L 394.95508 599.10938 L 394.95508 609.33203 L 168.28125 609.33203 L 163.16016 618.20312 L 394.95508 618.20312 L 626.75 618.20312 L 394.95508 216.72266 z "
       inkscape:transform-center-y="-17.704196"
       style="opacity:1;fill:#000000;stroke-width:9.99999;stroke-linecap:round;stroke-dasharray:9.99999, 9.99999000000000038;fill-opacity:1"
       id="path833" />
  </g>
</svg>
